<svg id="Layer_1" viewBox="0 0 512 512" xmlns="http://www.w3.org/2000/svg" data-name="Layer 1"><path d="m178.294 100.842a5.5 5.5 0 0 1 0-10.992h238.88a5.5 5.5 0 1 1 0 10.992zm-38.939-10.992a5.5 5.5 0 1 1 -5.521 5.5 5.5 5.5 0 0 1 5.521-5.5zm-33.489 0a5.5 5.5 0 1 1 -5.521 5.5 5.5 5.5 0 0 1 5.521-5.5zm-33.489 0a5.5 5.5 0 1 1 -5.521 5.5 5.5 5.5 0 0 1 5.521-5.5zm-45.377 30.662h435.526v-49.107a9.1 9.1 0 0 0 -9.064-9.064h-423.981a2.5 2.5 0 0 0 -2.481 2.479zm350.788 112.806a49.446 49.446 0 1 0 40.889 56.727 49.475 49.475 0 0 0 -40.889-56.727zm-43.249-.181a60.4 60.4 0 1 1 -24.3 39.352 60.184 60.184 0 0 1 24.3-39.352zm126.031 150.435-23.125 16.744 22.067 30.721a11.532 11.532 0 0 0 16.02 2.589c4.465-3.219 8.433-5.228 9.35-10.894a11.465 11.465 0 0 0 -2-8.565l-22.149-30.62a.225.225 0 0 0 -.163.025zm-21.69 2.143-12.475-17.294 7.512-5.421 12.475 17.3-7.512 5.418zm-141.765-115.385c10.149-62.694 93.132-85.946 132.529-31.328a73.749 73.749 0 0 1 -6.351 93.907 5.483 5.483 0 0 0 -.312 7.2l7.411 10.274a1.368 1.368 0 0 1 -.3 1.873l-12.671 9.144a1.368 1.368 0 0 1 -1.873-.3l-7.57-10.5a5.477 5.477 0 0 0 -6.782-1.753 73.717 73.717 0 0 1 -104.081-78.517zm-14.784 98.513h26.463c0-9.338.138-18.772-.02-28.1a84.443 84.443 0 0 1 -11.574-102.088h-14.869zm-57.121 0h26.463v-87.328h-26.463zm41.375-177.152-35.313 32.909a5.486 5.486 0 0 1 -5.975.993l-18.409-7.138-26.188 31.175a5.49 5.49 0 0 1 -6.261 1.568l-65.226-20.836a5.473 5.473 0 1 1 3.307-10.434l62.127 19.846 26.353-31.362a5.482 5.482 0 0 1 6.178-1.593l19.127 7.417 31.832-29.668h-6.551a5.5 5.5 0 0 1 0-10.993h20.492a5.5 5.5 0 0 1 5.5 5.5v20.491a5.5 5.5 0 1 1 -10.992 0v-7.872zm108.78 61.184c0 7.066-10.992 7.606-10.992-.362 0-7.065 10.992-7.606 10.992.362zm-16.165 21.739a5.5 5.5 0 1 1 0-10.993h10.672a5.5 5.5 0 0 1 5.5 5.5v33.954h5.176a5.5 5.5 0 1 1 0 10.992h-21.348a5.5 5.5 0 1 1 0-10.992h5.176v-28.461zm-238.476 54.5h-21.09l-.022 7.551a5.475 5.475 0 0 1 -3.886 5.238 53.967 53.967 0 0 0 -8.5 3.479 5.5 5.5 0 0 1 -6.871-.729l-5.343-5.342-14.912 14.911 5.329 5.356a5.477 5.477 0 0 1 .958 6.448 54 54 0 0 0 -3.555 8.459 5.5 5.5 0 0 1 -5.378 4.357h-7.554v21.088l7.551.021a5.475 5.475 0 0 1 5.238 3.886 53.967 53.967 0 0 0 3.479 8.5 5.5 5.5 0 0 1 -.728 6.871l-5.34 5.342 14.912 14.912 5.357-5.328a5.475 5.475 0 0 1 6.448-.959 53.853 53.853 0 0 0 8.458 3.555 5.5 5.5 0 0 1 4.358 5.378v7.551h21.087l.021-7.551a5.475 5.475 0 0 1 3.887-5.238 53.915 53.915 0 0 0 8.5-3.48 5.5 5.5 0 0 1 6.871.73l5.343 5.342 14.912-14.912-5.329-5.356a5.477 5.477 0 0 1 -.959-6.449 53.913 53.913 0 0 0 3.556-8.458 5.5 5.5 0 0 1 5.378-4.357h7.551v-21.088l-7.551-.021a5.476 5.476 0 0 1 -5.239-3.886 53.872 53.872 0 0 0 -3.479-8.5 5.5 5.5 0 0 1 .729-6.871l5.343-5.343-14.912-14.911-5.357 5.329a5.477 5.477 0 0 1 -6.448.958 53.864 53.864 0 0 0 -8.459-3.555 5.5 5.5 0 0 1 -4.357-5.378v-7.551zm50.306 99.142h272.97l6.347 8.8a22.512 22.512 0 0 0 31.141 5.769l5.2-3.745a22.473 22.473 0 0 0 5.076-31.309l-18.251-25.3v-311.066a20.1 20.1 0 0 0 -20.057-20.057h-423.975a13.5 13.5 0 0 0 -13.472 13.472v343.38a20.1 20.1 0 0 0 20.057 20.057h13.268l2.118 3.189 16.678 16.654a9.7 9.7 0 0 0 6.883 2.862c4.854 0 7.074-3.031 10.345-6.3l3.283 1.36c0 4.448-.59 8.3 2.871 11.76a9.7 9.7 0 0 0 6.879 2.871h23.572a9.724 9.724 0 0 0 6.89-2.86c3.435-3.434 2.86-7.144 2.86-11.771l3.284-1.36 3.451 3.451a9.76 9.76 0 0 0 13.787 0l16.665-16.669a9.693 9.693 0 0 0 2.124-3.189zm10.416-28.373c0 3.269-.379 5.678-2.87 8.17-3.461 3.46-7.313 2.87-11.76 2.87l-1.361 3.283 3.057 3.058h267.561l-7.5-10.4a11.156 11.156 0 0 1 1.472-14.677l-14.145-19.607a12.305 12.305 0 0 1 -9.242-5.08l-4.977-6.9a84.826 84.826 0 0 1 -81.9-10.193v18.435h14.731a5.5 5.5 0 0 1 5.5 5.5v20.046a5.5 5.5 0 0 1 -5.5 5.5zm0-20.046h147.575v9.054h-147.578v-9.054zm-13.354-33.322v-21.09h26.464v43.418h-18.58a9.694 9.694 0 0 0 -4.283-.993h-4.881l-1.36-3.283c3.272-3.272 6.3-5.491 6.3-10.345 0-3.4-1.381-5.425-3.665-7.708zm-57.12-28.394v-32.788h26.463v46.343l-2.435 2.435-3.284-1.36v-4.881a9.764 9.764 0 0 0 -9.75-9.75zm-12.578 0a9.68 9.68 0 0 0 -6.446 2.462c-3.9 3.3-3.3 7.576-3.3 12.169l-3.283 1.36-3.451-3.451a9.776 9.776 0 0 0 -13.788 0l-16.674 16.667a9.721 9.721 0 0 0 -2.852 6.894c0 4.854 3.032 7.073 6.3 10.345l-1.361 3.283h-4.878a9.765 9.765 0 0 0 -9.75 9.75v23.572a9.685 9.685 0 0 0 2.462 6.446c3.3 3.9 7.575 3.3 12.169 3.3l1.361 3.283-3.057 3.058h-15.78a9.106 9.106 0 0 1 -9.066-9.059v-276.695h435.526v241.234a11.087 11.087 0 0 0 -7.2 1.218l-14.146-19.612a12.25 12.25 0 0 0 -1.9-10.361l-4.984-6.909a84.664 84.664 0 0 0 4.236-104.475c-32.331-44.823-98.1-47.018-133.5-4.942h-28.2a5.5 5.5 0 0 0 -5.5 5.5v135.685h-8.672v-92.824a5.5 5.5 0 0 0 -5.5-5.5h-37.446a5.5 5.5 0 0 0 -5.5 5.5v92.824h-8.672v-48.914a5.5 5.5 0 0 0 -5.5-5.5h-37.449a5.5 5.5 0 0 0 -5.5 5.5v15.592l-4.872-4.85a9.7 9.7 0 0 0 -3.8-2.36v-48.474a5.5 5.5 0 0 0 -5.5-5.5h-37.449a5.5 5.5 0 0 0 -5.5 5.5v38.283zm26.3 56.747a20.534 20.534 0 0 1 0 29.038c-12.9 12.9-35.051 3.72-35.051-14.519s22.157-27.418 35.057-14.52zm-14.519-17.006a31.525 31.525 0 1 1 -31.524 31.525 31.527 31.527 0 0 1 31.526-31.526z" fill-rule="evenodd"/></svg>