<svg id="Layer_1" enable-background="new 0 0 512 512" viewBox="0 0 512 512" xmlns="http://www.w3.org/2000/svg"><path d="m240.39 275.23c-4.42 0-7.99-3.57-7.99-7.99s3.57-7.99 7.99-7.99h102.3c4.42 0 7.99 3.57 7.99 7.99s-3.57 7.99-7.99 7.99zm131.98 0c-4.42 0-7.99-3.57-7.99-7.99s3.57-7.99 7.99-7.99h38.83c4.39 0 7.99 3.57 7.99 7.99s-3.6 7.99-7.99 7.99zm-155.23-42.55c-4.42 0-7.99-3.6-7.99-8.02 0-4.39 3.57-7.99 7.99-7.99h32.83c4.42 0 7.99 3.6 7.99 7.99 0 4.42-3.57 8.02-7.99 8.02zm71.15 0c-4.42 0-7.99-3.6-7.99-8.02 0-4.39 3.57-7.99 7.99-7.99h122.91c4.39 0 7.99 3.6 7.99 7.99 0 4.42-3.6 8.02-7.99 8.02zm-7.17-138.39v-5.27c0-4.42 3.57-7.99 7.99-7.99s7.99 3.57 7.99 7.99v5.27c14 2.38 27.78 11.79 27.78 26.31 0 4.39-3.57 7.99-7.99 7.99s-7.99-3.6-7.99-7.99c0-9.07-22-15.65-34.95-6.83-2.86 1.96-4.62 4.39-4.62 6.83 0 7.63 10.52 9.35 21.06 11.06 17.26 2.81 34.5 5.61 34.5 26.82 0 14.51-13.78 23.9-27.78 26.28v5.3c0 4.39-3.57 7.99-7.99 7.99s-7.99-3.6-7.99-7.99v-5.3c-14-2.38-27.81-11.76-27.81-26.28 0-4.42 3.6-7.99 8.02-7.99 4.39 0 7.99 3.57 7.99 7.99 0 9.04 22 15.62 34.92 6.8 2.86-1.96 4.65-4.37 4.65-6.8 0-7.65-10.54-9.35-21.06-11.05-17.26-2.81-34.53-5.61-34.53-26.82 0-14.53 13.81-23.94 27.81-26.32zm107.94 228.61c3.12-3.12 8.19-3.12 11.31 0s3.12 8.19 0 11.31l-64.06 64.06c-3.12 3.12-8.19 3.12-11.31 0-3.12-3.15-3.12-8.19 0-11.31zm-46.8 3.46c-6.12-6.09-16.64-1.76-16.64 6.89 0 8.67 10.52 13.01 16.64 6.89 3.8-3.8 3.8-9.95 0-13.78zm11.31-11.31c16.16 16.19 4.65 43.94-18.2 43.94-22.88 0-34.36-27.75-18.2-43.94 10.04-10.03 26.34-10.03 36.4 0zm43.35 65.96c-6.12-6.09-16.64-1.76-16.64 6.89 0 8.67 10.52 13.01 16.64 6.89 3.8-3.8 3.8-9.98 0-13.78zm-6.89-18.85c22.85 0 34.36 27.78 18.2 43.94-16.19 16.16-43.94 4.68-43.94-18.2 0-14.2 11.51-25.74 25.74-25.74zm-6.24-272.86c-3.12-3.12-3.12-8.16 0-11.31 3.12-3.12 8.19-3.12 11.31 0l11.08 11.08 34.13-34.13c3.12-3.12 8.19-3.12 11.31 0 3.12 3.15 3.12 8.19 0 11.31l-39.77 39.8c-3.15 3.12-8.19 3.12-11.34 0zm33.9-74.86c36.51 0 66.08 29.59 66.08 66.08 0 24.97-13.92 47.14-35.15 58.39v333.52c0 4.42-3.57 8.02-7.99 8.02h-303.03c-1.42 0-2.72-.37-3.88-1.02-3.88-.51-6.89-3.86-6.89-7.91v-14.97c0-3.94.99-7.68 2.78-10.91v-71.34l-67.86 67.86c-15.02 15-41.07 4.48-41.07-17.04 0-6.15 2.35-12.3 7.03-17.01l71.57-71.55-.45-.43c-3.12-3.12-3.12-8.19 0-11.31l12.53-12.53-4.28-4.25c-13.55 9.89-33.02.34-33.02-16.81 0-5.3 2.01-10.63 6.07-14.68l49.49-49.49v-111.2c-.03-2.72 1.25-4.88 3.23-6.43l65.68-55.76c1.62-1.45 3.32-2.24 5.56-2.24h154.29c10.93-22.25 33.63-36.99 59.31-36.99zm14.91 130.45c-46.71 10.77-89.12-30.39-79.65-77.47h-140.88v48.44c0 4.39-3.57 7.99-7.99 7.99h-58.48v87.19c13.92-13.89 35.89-3.74 35.89 14.31 0 4.31-1.33 8.65-4 12.27l54.74 54.71c13.58-9.89 33.05-.34 33.05 16.81 0 5.33-2.04 10.66-6.09 14.71l-65.88 65.88c-12.98 12.98-35.49 3.86-35.49-14.71 0-4.31 1.33-8.62 4-12.27l-4.25-4.25-11.96 11.93v63.55c2.38-.45 3.91-.4 6.24-.4v-6.94c0-12.64 10.32-22.96 22.96-22.96h125.69c12.64 0 22.93 10.32 22.93 22.96v6.94h2.04c12.64 0 22.96 10.32 22.96 22.96v7.88h84.19v-319.53zm20.5-99.78c-19.53-19.56-51.25-19.56-70.78 0-19.56 19.56-19.56 51.25 0 70.78 19.53 19.56 51.25 19.56 70.78 0 19.56-19.53 19.56-51.22 0-70.78zm-285.28 388.49h139.61v-6.94c0-3.8-3.15-6.94-6.94-6.94h-125.7c-3.83 0-6.97 3.15-6.97 6.94zm157.64 16.01c-58.54 0-117.1 0-175.66 0-3.83 0-6.97 3.15-6.97 6.94v6.97h189.61v-6.97c-.01-3.79-3.16-6.94-6.98-6.94zm-214.87-101.73-71.57 71.55c-4.96 4.96-1.59 13.75 5.7 13.75 2.1 0 4.17-.77 5.73-2.32l71.55-71.57zm12.07-24.27-6.86 6.86 23.58 23.58 6.86-6.86zm98.08-20.12-54.37-54.37-47.79 47.79 54.37 54.37zm-42.12 64.74c-2.32 2.41-4.79 4-4.79 6.8 0 4.37 5.24 6.32 8.16 3.4l65.88-65.88c2.95-2.95.99-8.19-3.37-8.19-1.25 0-2.47.48-3.4 1.39zm-14.51-146.24c-1.87-1.87-4.93-1.87-6.8 0l-65.88 65.88c-2.92 2.92-.96 8.16 3.4 8.16 1.22 0 2.47-.45 3.37-1.39l65.91-65.88c1.84-1.84 1.84-4.93 0-6.77zm-4.74-114.15h36.71v-31.15z"/></svg>