<svg id="Layer_1" viewBox="0 0 64 64" xmlns="http://www.w3.org/2000/svg" data-name="Layer 1"><g><path d="m48.48 2.68h-4.17l.05 1.15h4.13c2.46 0 4.46 1.75 4.46 3.9v31.57h1.15v-31.57c0-2.79-2.51-5.04-5.61-5.04zm-33.96 0c-3.09 0-5.6 2.26-5.6 5.04v24.57h1.15v-24.56c0-2.14 2.01-3.9 4.46-3.9h4.24l.05-1.15h-4.29z"/><path d="m56.76 41.15h-5.98c-.29-.02-.99.14-.97-.36 0-.19.16-.36.36-.36h6.6c.46 0 .46.72 0 .71z"/><path d="m55.76 48.25c-.05-.09-.08-.19-.08-.29v-5.66h-4.33v5.66c0 .09-.02.19-.08.29l-4.54 7.87h13.58zm-4.15 5.93c-2.26-.05-2.26-3.4 0-3.44 2.26.03 2.26 3.39 0 3.44zm4.41 1.34c-2.26-.03-2.26-3.4 0-3.44 2.27.03 2.27 3.4 0 3.44z"/><path d="m62.52 61.98c-.37.64-1.03 1.02-1.77 1.02h-14.49c-1.51.05-2.56-1.77-1.75-3.05l1.55-2.68h14.9l1.55 2.68c.38.63.38 1.4.01 2.03z"/><path d="m43.21 4.54h-23.3v-1.27-.09c0-1.2.97-2.18 2.18-2.18h18.95c1.23 0 2.24 1.03 2.18 2.26.01.01 0 1.26 0 1.28z"/><path d="m21.98 57.62c-1.97 3.22-5.51 5.38-9.56 5.38s-7.59-2.15-9.56-5.38z"/><path d="m17.82 34.5h-9.89c-.45-.03-1.42.19-1.43-.53 0-.29.24-.53.53-.53h10.8c.69.01.69 1.05 0 1.05z"/><path d="m16.7 41.42c-.22-.09-.36-.3-.36-.54v-5.23h-7.84v5.23c0 .24-.14.45-.36.54-5.81 2.24-8.62 9.5-5.9 15.06h20.36c.66-1.43 1.04-3.01 1.04-4.69 0-4.57-2.73-8.64-6.95-10.37zm-8.46 9.44c-3.66-.09-3.66-5.46 0-5.55 3.66.09 3.66 5.46 0 5.55zm5.65 3.19c-2.52-.05-2.52-3.79 0-3.84 2.52.05 2.52 3.79 0 3.84zm1.48-5.07c-2.52-.03-2.52-3.78 0-3.83 2.52.05 2.52 3.78 0 3.83z"/><path d="m43.94 29.71c-2.5 2.3-6.02-1.17-3.67-3.67 2.45-2.36 6.04 1.23 3.67 3.67z"/><path d="m48.99 22.42c-1.58 1.48-3.87-.77-2.35-2.36 1.57-1.51 3.87.79 2.35 2.36z"/><path d="m44.33 15.26h-1.35c-.28 0-.52-.21-.56-.47-.11-.66-.37-1.26-.73-1.81-.41-.58.56-1.12 1.03-1.68.34-.33-.19-.86-.54-.53l-.95.95c-.19.19-.5.23-.73.07-.54-.38-1.13-.63-1.79-.76-.71-.13-.4-1.17-.46-1.91 0-.49-.76-.48-.76 0-.06.75.25 1.79-.47 1.91-.65.11-1.26.36-1.8.73-.23.15-.53.13-.72-.07l-.96-.96c-.34-.36-.87.19-.53.53l.95.95c.19.19.23.5.07.73-.38.54-.63 1.15-.76 1.79-.06.28-.29.47-.56.47h-1.35c-.49-.01-.48.76 0 .75.73.07 1.79-.25 1.9.47.11.65.37 1.26.73 1.8.16.23.13.54-.07.73l-.95.96c-.36.33.18.86.53.53l.95-.95c.19-.21.5-.23.73-.07.54.38 1.13.63 1.79.76.71.13.4 1.16.47 1.91-.01.48.75.48.75 0v-1.35c0-.28.19-.52.47-.56.65-.11 1.26-.36 1.8-.73.6-.41 1.13.57 1.68 1.03.22.23.65.06.64-.26.07-.22-.97-1.08-1.07-1.21-.19-.19-.22-.5-.07-.73.38-.54.64-1.15.76-1.79.06-.28.29-.47.56-.47h1.36c.48 0 .48-.76 0-.75zm-6.49 2.29c-2.56-.05-2.56-3.85 0-3.9 2.56.05 2.56 3.85 0 3.9z"/><path d="m37.85 16.41c-1.05-.01-1.05-1.59 0-1.6 1.04.01 1.04 1.59 0 1.6z"/><path d="m25.6 12.03h-10.47c-.75 0-.75 1.14 0 1.15h10.47c.75 0 .75-1.14 0-1.15z"/><path d="m25.6 16h-10.47c-.75 0-.75 1.14 0 1.15h10.47c.75 0 .75-1.14 0-1.15z"/><path d="m25.6 19.97h-10.47c-.75 0-.75 1.14 0 1.15h10.47c.75 0 .75-1.14 0-1.15z"/><path d="m25.6 23.94h-10.47c-.75 0-.75 1.14 0 1.15h10.47c.75 0 .75-1.14 0-1.15z"/><path d="m8.24 49.71c-2.14-.03-2.14-3.22 0-3.26 2.14.03 2.14 3.22 0 3.26z"/><path d="m13.89 52.9c-1.01-.01-1.01-1.54 0-1.55 1.01.01 1.01 1.54 0 1.55z"/><path d="m51.61 53.03c-.75-.01-.76-1.15 0-1.15s.75 1.13 0 1.15z"/><path d="m56.03 54.37c-.75 0-.75-1.15 0-1.15s.76 1.15 0 1.15z"/><path d="m15.37 47.83c-1.01 0-1.01-1.54 0-1.54s1.01 1.54 0 1.54z"/></g><g fill="none"><path d="m18.81 2.68-.05 1.15"/><path d="m44.36 3.83-.05-1.15"/></g></svg>