<?xml version="1.0" encoding="UTF-8" standalone="no"?>
<!-- Created with Inkscape (http://www.inkscape.org/) -->

<svg
   version="1.1"
   id="svg2859"
   xml:space="preserve"
   width="682.66669"
   height="682.66669"
   viewBox="0 0 682.66669 682.66669"
   xmlns="http://www.w3.org/2000/svg"
   xmlns:svg="http://www.w3.org/2000/svg"><defs
     id="defs2863"><clipPath
       clipPathUnits="userSpaceOnUse"
       id="clipPath2873"><path
         d="M 0,512 H 512 V 0 H 0 Z"
         id="path2871" /></clipPath></defs><g
     id="g2865"
     transform="matrix(1.3333333,0,0,-1.3333333,0,682.66667)"><g
       id="g2867"><g
         id="g2869"
         clip-path="url(#clipPath2873)"><g
           id="g2875"
           transform="translate(7.5,227.2002)"><path
             d="M 0,0 V -26.024"
             style="fill:none;stroke:#000000;stroke-width:15;stroke-linecap:round;stroke-linejoin:round;stroke-miterlimit:10;stroke-dasharray:none;stroke-opacity:1"
             id="path2877" /></g><g
           id="g2879"
           transform="translate(504.5,201.1758)"><path
             d="m 0,0 v 249.426 c 0,15.072 -12.219,27.291 -27.291,27.291 h -442.418 c -15.072,0 -27.291,-12.219 -27.291,-27.291 V 61.024"
             style="fill:none;stroke:#000000;stroke-width:15;stroke-linecap:round;stroke-linejoin:round;stroke-miterlimit:10;stroke-dasharray:none;stroke-opacity:1"
             id="path2881" /></g><g
           id="g2883"
           transform="translate(477.209,126.1758)"><path
             d="M 0,0 C 15.072,0 27.291,12.219 27.291,27.291 V 75 h -497 V 27.291 C -469.709,12.219 -457.49,0 -442.418,0 Z"
             style="fill:none;stroke:#000000;stroke-width:15;stroke-linecap:round;stroke-linejoin:round;stroke-miterlimit:10;stroke-dasharray:none;stroke-opacity:1"
             id="path2885" /></g><g
           id="g2887"
           transform="translate(412.9883,452.8926)"><path
             d="m 0,0 h 64.221 c 1.263,0 2.291,-1.028 2.291,-2.291 v -249.426 h -447 V -2.291 c 0,1.263 1.027,2.291 2.291,2.291 L -35,0"
             style="fill:none;stroke:#000000;stroke-width:15;stroke-linecap:round;stroke-linejoin:round;stroke-miterlimit:10;stroke-dasharray:none;stroke-opacity:1"
             id="path2889" /></g><g
           id="g2891"
           transform="translate(268.7354,163.6758)"><path
             d="m 0,0 c 0,-7.033 -5.702,-12.735 -12.735,-12.735 -7.034,0 -12.736,5.702 -12.736,12.735 0,7.033 5.702,12.735 12.736,12.735 C -5.702,12.735 0,7.033 0,0 Z"
             style="fill:none;stroke:#000000;stroke-width:15;stroke-linecap:round;stroke-linejoin:round;stroke-miterlimit:10;stroke-dasharray:none;stroke-opacity:1"
             id="path2893" /></g><g
           id="g2895"
           transform="translate(243.3223,255.9141)"><path
             d="M 0,0 C -6.952,0 -13.511,2.683 -18.467,7.555 L -66.68,54.936 c -4.99,4.897 -7.862,11.733 -7.866,18.741 -0.003,7.01 2.862,13.848 7.862,18.764 l 17.634,17.329 c 4.952,4.868 11.51,7.55 18.462,7.55 6.943,0 13.496,-2.676 18.45,-7.537 L 0,97.854 37.479,134.687 c 4.953,4.869 11.511,7.552 18.464,7.552 6.961,0 13.526,-2.688 18.483,-7.572 l 17.608,-17.304 c 4.991,-4.897 7.863,-11.733 7.867,-18.741 0.003,-7.01 -2.862,-13.849 -7.862,-18.765 L 18.463,7.552 C 13.525,2.688 6.961,0 0,0 Z"
             style="fill:none;stroke:#000000;stroke-width:15;stroke-linecap:round;stroke-linejoin:round;stroke-miterlimit:10;stroke-dasharray:none;stroke-opacity:1"
             id="path2897" /></g><g
           id="g2899"
           transform="translate(298.3252,372.7715)"><path
             d="m 0,0 -54.063,-53.131 c -0.519,-0.51 -1.361,-0.51 -1.88,0 l -28.707,28.212 c -0.52,0.511 -1.362,0.511 -1.88,0 l -17.629,-17.324 c -0.52,-0.51 -0.52,-1.337 0,-1.848 l 48.216,-47.384 c 0.519,-0.509 1.361,-0.509 1.88,0 l 73.572,72.303 c 0.519,0.51 0.519,1.337 0,1.847 L 1.88,0 C 1.361,0.51 0.52,0.51 0,0 Z"
             style="fill:none;stroke:#000000;stroke-width:15;stroke-linecap:round;stroke-linejoin:round;stroke-miterlimit:10;stroke-dasharray:none;stroke-opacity:1"
             id="path2901" /></g><g
           id="g2903"
           transform="translate(273.4443,61.8291)"><path
             d="m 0,0 h -110.113 c -1.924,0 -3.485,-1.561 -3.485,-3.484 v -20.753 c 0,-1.924 1.561,-3.485 3.485,-3.485 H 75.225 c 1.923,0 3.484,1.561 3.484,3.485 V -3.484 C 78.709,-1.561 77.148,0 75.225,0 H 35"
             style="fill:none;stroke:#000000;stroke-width:15;stroke-linecap:round;stroke-linejoin:round;stroke-miterlimit:10;stroke-dasharray:none;stroke-opacity:1"
             id="path2905" /></g><g
           id="g2907"
           transform="translate(305.5137,126.1758)"><path
             d="M 0,0 19.533,-64.347"
             style="fill:none;stroke:#000000;stroke-width:15;stroke-linecap:round;stroke-linejoin:round;stroke-miterlimit:10;stroke-dasharray:none;stroke-opacity:1"
             id="path2909" /></g><g
           id="g2911"
           transform="translate(186.9531,61.8291)"><path
             d="M 0,0 19.533,64.347"
             style="fill:none;stroke:#000000;stroke-width:15;stroke-linecap:round;stroke-linejoin:round;stroke-miterlimit:10;stroke-dasharray:none;stroke-opacity:1"
             id="path2913" /></g></g></g></g></svg>
