<svg id="Layer_1" enable-background="new 0 0 512 512" viewBox="0 0 512 512" xmlns="http://www.w3.org/2000/svg"><path d="m249.564 256.712h-38.366c-4.418 0-8 3.582-8 8v122.457c0 4.418 3.582 8 8 8h38.366c4.418 0 8-3.582 8-8v-122.457c0-4.418-3.581-8-8-8zm-8 122.457h-22.366v-106.457h22.366zm-63.239-74.956h-38.366c-4.418 0-8 3.582-8 8v74.956c0 4.418 3.582 8 8 8h38.366c4.418 0 8-3.582 8-8v-74.956c0-4.418-3.581-8-8-8zm-8 74.956h-22.366v-58.956h22.366zm-17.495-115.004c-2.714-3.486-2.089-8.513 1.397-11.227l71.24-55.472c2.094-1.63 4.86-2.116 7.384-1.297l66.35 21.527 52.326-52.773-1.159.102c-4.4.383-8.282-2.87-8.668-7.271s2.869-8.282 7.271-8.668l23.19-2.034c2.385-.211 4.747.664 6.423 2.38s2.493 4.094 2.226 6.478l-2.586 23.135c-.457 4.089-3.92 7.112-7.94 7.112-.297 0-.597-.016-.898-.05-4.391-.491-7.553-4.448-7.062-8.839l.064-.573-55.291 55.764c-2.125 2.144-5.277 2.909-8.149 1.977l-66.997-21.737-67.892 52.865c-1.46 1.137-3.191 1.688-4.91 1.688-2.384-.002-4.742-1.062-6.319-3.087zm14.677-85.913c33.439 0 60.644-27.205 60.644-60.644s-27.205-60.644-60.644-60.644-60.644 27.205-60.644 60.644 27.205 60.644 60.644 60.644zm0-105.288c24.617 0 44.644 20.027 44.644 44.644s-20.027 44.644-44.644 44.644-44.644-20.027-44.644-44.644 20.028-44.644 44.644-44.644zm8.399 59.826c.317-.366.59-.786.456-1.893-.146-1.199-.486-4.004-10.103-5.583-18.347-3.012-21.581-13.635-21.875-19.699-.461-9.502 5.536-17.539 15.123-20.606v-.712c0-4.418 3.582-8 8-8s8 3.582 8 8v.603c6.588 2.098 12.046 6.885 14.875 13.621 1.71 4.074-.205 8.763-4.279 10.473-4.073 1.711-8.763-.205-10.473-4.279-2.136-5.086-7.505-5.354-10.344-4.713-1.196.271-5.086 1.422-4.92 4.837.107 2.203 2.962 3.78 8.486 4.687 14.24 2.338 22.111 8.88 23.393 19.443.654 5.386-.812 10.327-4.237 14.288-2.968 3.431-7.398 5.959-12.5 7.253v.412c0 4.418-3.582 8-8 8s-8-3.582-8-8v-.556c-8.315-2.39-14.605-8.458-16.65-16.661-1.069-4.287 1.54-8.629 5.827-9.698 4.291-1.07 8.629 1.54 9.698 5.827 1.074 4.31 5.853 5.712 9.623 5.644 3.298-.079 6.621-1.209 7.9-2.688zm323.532 329.501-42.619-41.355c-2.881-2.798-6.688-4.317-10.712-4.243-1.639.025-3.228.32-4.731.842l-15.081-14.635c7.48-12.709 11.79-27.497 11.79-43.28 0-11.665-2.353-22.788-6.596-32.931v-256.248c0-2.275-.449-4.432-1.304-6.417-.119-.293-.253-.579-.405-.854-.768-1.523-1.778-2.939-3.045-4.206l-46.21-46.209c-1.265-1.266-2.679-2.275-4.2-3.043-.279-.154-.568-.29-.866-.411-1.984-.853-4.138-1.301-6.411-1.301h-252.306c-8.949 0-16.23 7.281-16.23 16.23v33.461c-14.251 15.918-22.931 36.921-22.931 59.917 0 16.704 4.584 32.356 12.551 45.773l-16.362 15.877c-1.617-.593-3.334-.932-5.109-.959-4.113-.038-8.035 1.483-10.99 4.351l-44.991 43.658c-6.112 5.933-6.259 15.731-.328 21.843l16.243 16.74c3.024 3.116 7.054 4.683 11.088 4.683 3.878 0 7.76-1.447 10.756-4.354l44.989-43.656c2.956-2.868 4.618-6.723 4.68-10.855.027-1.775-.26-3.502-.804-5.135l1.207-1.171v211.606c0 8.949 7.281 16.23 16.23 16.23h190.471c13.141 8.22 28.651 12.991 45.262 12.991 18.572 0 35.767-5.963 49.812-16.05l14.311 13.887c-.476 1.518-.723 3.115-.699 4.754.061 4.026 1.68 7.783 4.561 10.578l42.621 41.358c2.92 2.833 6.703 4.242 10.482 4.242 3.932 0 7.859-1.526 10.807-4.563l15.388-15.857c2.795-2.881 4.301-6.685 4.24-10.712-.059-4.024-1.68-7.781-4.559-10.576zm-70.358-34.393-2.493 2.569-12.187-11.827c.824-.864 1.63-1.744 2.418-2.641zm-24.904-368.866h-23.719v-23.718zm-236.669-15.35c40.763 0 73.927 33.163 73.927 73.926s-33.164 73.926-73.927 73.926-73.926-33.163-73.926-73.926 33.163-73.926 73.926-73.926zm-64.757 136.255-13.487 13.087-3.251-3.35 13.583-13.181c1.022 1.176 2.075 2.323 3.155 3.444zm-63.056 73.416-15.474-15.947 44.198-42.889 15.475 15.947zm76.818 162.656v-224.374c14.501 10.021 32.073 15.9 50.995 15.9 49.586 0 89.927-40.341 89.927-89.926s-40.341-89.926-89.927-89.926c-18.922 0-36.493 5.879-50.995 15.9v-19.353c0-.114.116-.23.23-.23h247.715v38.917c0 6.68 5.435 12.115 12.115 12.115h38.917v226.71c-4.6-5.004-9.784-9.463-15.447-13.262v-74.094c0-4.418-3.582-8-8-8h-38.366c-4.418 0-8 3.582-8 8v59.919c-6.036.477-11.898 1.575-17.52 3.245-1.224-2.849-4.054-4.846-7.352-4.846h-38.366c-4.418 0-8 3.582-8 8v43.781c-4.85 10.729-7.573 22.616-7.573 35.135 0 21.694 8.126 41.516 21.475 56.619h-171.598c-.114 0-.23-.116-.23-.23zm267.53-135.942c-7.049-2.807-14.548-4.716-22.366-5.556v-52.125h22.366zm-79.495 8.651c-5.132 3.48-9.853 7.517-14.11 11.999v-12.014zm-21.683 70.902c0-38.384 31.227-69.61 69.611-69.61 38.383 0 69.61 31.227 69.61 69.61s-31.227 69.61-69.61 69.61c-38.384 0-69.611-31.226-69.611-69.61zm190.681 127.997-41.264-40.042 14.072-14.502 41.265 40.043zm-121.07-185.866c-31.909 0-57.869 25.96-57.869 57.869s25.96 57.869 57.869 57.869 57.869-25.96 57.869-57.869-25.96-57.869-57.869-57.869zm0 99.738c-23.087 0-41.869-18.782-41.869-41.869s18.782-41.869 41.869-41.869 41.869 18.782 41.869 41.869-18.782 41.869-41.869 41.869zm-76.069-313.725c0-4.418 3.582-8 8-8h17.531c4.418 0 8 3.582 8 8s-3.582 8-8 8h-17.531c-4.419 0-8-3.582-8-8zm45.323 0c0-4.418 3.582-8 8-8h61.919c4.418 0 8 3.582 8 8s-3.582 8-8 8h-61.919c-4.419 0-8-3.582-8-8zm-45.323 30.723c0-4.418 3.582-8 8-8h17.531c4.418 0 8 3.582 8 8s-3.582 8-8 8h-17.531c-4.419 0-8-3.581-8-8zm45.323 0c0-4.418 3.582-8 8-8h61.919c4.418 0 8 3.582 8 8s-3.582 8-8 8h-61.919c-4.419 0-8-3.581-8-8z"/></svg>