<svg id="Layer_1" enable-background="new 0 0 512 512" height="512" viewBox="0 0 512 512" width="512" xmlns="http://www.w3.org/2000/svg"><path d="m308.89 366.3-61.114 35.596c-1.093.636-2.193 1.2-3.306 1.693.165-.504.317-1.018.458-1.542 3.479-12.985-4.196-26.529-17.472-30.833-.343-.111-.693-.199-1.047-.263-17.35-3.129-34.571-9.355-48.409-14.358-4.861-1.757-9.452-3.417-13.379-4.69-16.606-5.388-31.385 1.145-43.649 8.245l-43.216 25.021-3.005-5.309c-2.231-3.943-5.874-6.783-10.256-7.998-4.381-1.214-8.967-.655-12.909 1.577l-17.147 9.705c-3.943 2.231-6.784 5.874-7.998 10.256s-.655 8.967 1.577 12.91l50.413 89.075c3.124 5.519 8.891 8.623 14.821 8.623 2.834 0 5.706-.709 8.344-2.202l17.147-9.705c8.157-4.617 11.037-15.009 6.421-23.166l-3.939-6.96 7.227-4.172 77.243 20.697c4.547 1.219 9.071 1.825 13.522 1.824 9.009 0 17.715-2.482 25.677-7.383l110.907-68.292c11.245-6.923 14.862-24.288 7.588-36.432-3.508-5.856-17.8-23.291-54.499-1.917zm-198.029 111.874-17.147 9.705c-.465.262-1.1.085-1.36-.377l-50.412-89.074c-.162-.287-.135-.569-.083-.756s.173-.442.46-.604l17.147-9.705c.163-.092.324-.123.467-.123.109 0 .208.018.288.04.187.052.442.173.604.459l50.413 89.075c.262.463.086 1.098-.377 1.36zm236.549-87.151-110.906 68.292c-8.167 5.028-17.141 6.283-26.669 3.729l-80.445-21.555c-2.048-.548-4.232-.261-6.07.799l-9.978 5.76-27.706-48.954 43.351-25.1c13.233-7.661 22.126-9.652 30.696-6.872 3.675 1.192 7.939 2.733 12.876 4.518 14.248 5.151 31.942 11.548 50.403 14.947 4.983 1.832 7.769 6.621 6.51 11.32-.502 1.874-2.037 7.532-11.28 6.494-8.846-1.828-17.304-4.24-26.25-6.795-4.301-1.229-8.749-2.499-13.331-3.727-4.266-1.141-8.654 1.39-9.798 5.657-1.144 4.268 1.389 8.654 5.657 9.798 4.455 1.193 8.838 2.445 13.078 3.656 9.377 2.678 28.084 7.217 28.139 7.226l7.606 1.236c11.977 1.916 22.619.042 32.534-5.732l61.114-35.596c15.974-9.302 28.511-10.716 32.718-3.69 3.059 5.105 1.29 12.41-2.249 14.589zm-284.239 11.3c.489 3.345-1.826 6.454-5.172 6.943s-6.454-1.826-6.943-5.172c-.489-3.345 1.826-6.454 5.172-6.943s6.455 1.827 6.943 5.172zm283.818-165.915c.665-1.297 1.406-2.741 2.228-4.368 4.975-9.842 2.915-21.525-5.126-29.072-1.329-1.247-2.519-2.351-3.587-3.342-3.937-3.652-6.106-5.664-7.021-7.25-.916-1.585-1.573-4.47-2.768-9.706-.324-1.421-.685-3.003-1.101-4.778-2.516-10.737-11.604-18.363-22.614-18.975-1.82-.101-3.441-.182-4.897-.254-5.364-.267-8.318-.415-10.039-1.041-1.72-.626-4.078-2.413-8.359-5.656-1.162-.88-2.455-1.86-3.914-2.952-8.828-6.608-20.691-6.609-29.52 0-1.459 1.092-2.752 2.072-3.914 2.952-4.281 3.244-6.639 5.03-8.359 5.656s-4.675.773-10.038 1.041c-1.456.073-3.077.153-4.896.254-11.011.612-20.099 8.238-22.615 18.975-.416 1.775-.777 3.357-1.101 4.778-1.195 5.236-1.853 8.12-2.768 9.706-.915 1.585-3.084 3.597-7.021 7.25-1.069.991-2.258 2.095-3.587 3.342-8.041 7.547-10.101 19.23-5.126 29.072.822 1.627 1.563 3.071 2.228 4.368 2.451 4.779 3.8 7.411 4.118 9.214s-.05 4.738-.719 10.067c-.182 1.446-.383 3.056-.6 4.866-1.309 10.95 4.623 21.224 14.76 25.565 1.082.463 2.082.887 3.021 1.284l-20.169 43.32c-1.258 2.702-.91 5.878.903 8.244 1.813 2.365 4.792 3.53 7.726 3.013l21.696-3.791 11.066 19.043c1.436 2.471 4.076 3.98 6.916 3.98.121 0 .243-.003.364-.008 2.977-.135 5.632-1.914 6.89-4.615l20.755-44.579c2.404-.697 4.035-1.074 5.229-1.074 1.831 0 4.658.872 9.79 2.456.264.081.538.166.813.251l14.75 34.246c1.179 2.737 3.782 4.592 6.753 4.813.199.015.398.022.596.022 2.752 0 5.33-1.419 6.796-3.782l11.613-18.714 21.576 4.419c2.921.598 5.93-.477 7.81-2.788 1.881-2.312 2.321-5.477 1.143-8.214l-16.347-37.954c9.581-4.554 15.133-14.519 13.864-25.138-.216-1.809-.418-3.419-.6-4.865-.668-5.329-1.037-8.265-.719-10.067s1.67-4.435 4.121-9.214zm-115.978 99.534-6.167-10.612c-1.683-2.896-4.988-4.435-8.294-3.861l-12.09 2.112 12.766-27.419c.814 1.199 1.76 2.661 2.919 4.456.791 1.224 1.671 2.588 2.669 4.114 4.104 6.275 10.571 10.155 17.608 10.996zm82.88-22.506c-3.283-.674-6.635.772-8.402 3.619l-6.472 10.428-5.416-12.575c5.461-1.602 10.329-5.102 13.647-10.177.998-1.525 1.878-2.889 2.668-4.113 2.902-4.493 4.505-6.975 5.903-8.157l10.094 23.437zm21.047-88.614c-.807 1.596-1.534 3.013-2.186 4.285-6.539 12.751-6.821 14.354-5.038 28.574.178 1.418.376 2.998.588 4.773.466 3.897-1.564 7.413-5.172 8.958-1.644.704-3.111 1.323-4.429 1.878-13.205 5.565-14.452 6.61-22.226 18.65-.775 1.201-1.639 2.538-2.618 4.034-2.147 3.285-5.961 4.673-9.72 3.538-1.711-.518-3.232-.987-4.599-1.408-13.694-4.226-15.32-4.226-29.015 0-1.366.421-2.887.891-4.599 1.408-3.759 1.134-7.573-.254-9.72-3.538-.979-1.497-1.843-2.835-2.619-4.036-7.773-12.038-9.02-13.084-22.225-18.649-1.317-.555-2.785-1.173-4.429-1.877-3.608-1.545-5.638-5.062-5.172-8.958.212-1.775.41-3.354.588-4.773 1.784-14.22 1.501-15.822-5.038-28.574-.652-1.272-1.379-2.689-2.186-4.285-1.771-3.503-1.066-7.501 1.796-10.187 1.304-1.224 2.471-2.307 3.52-3.279 10.506-9.746 11.319-11.155 14.507-25.126.318-1.394.672-2.946 1.08-4.687.895-3.821 4.006-6.431 7.925-6.649 1.786-.1 3.376-.179 4.804-.25 14.312-.713 15.841-1.27 27.264-9.923 1.139-.863 2.408-1.825 3.84-2.896 1.571-1.176 3.372-1.764 5.172-1.764s3.601.588 5.172 1.764c1.431 1.072 2.7 2.033 3.84 2.896 11.422 8.654 12.951 9.21 27.264 9.923 1.428.071 3.019.15 4.805.25 3.918.218 7.029 2.828 7.924 6.649.408 1.741.762 3.293 1.08 4.687 3.188 13.972 4.001 15.38 14.507 25.126 1.048.973 2.216 2.055 3.52 3.279 2.86 2.686 3.565 6.684 1.795 10.187zm-69.907-49.389c-30.077 0-54.546 24.469-54.546 54.546s24.469 54.546 54.546 54.546 54.547-24.469 54.547-54.546-24.47-54.546-54.547-54.546zm0 93.092c-21.254 0-38.546-17.292-38.546-38.546s17.292-38.546 38.546-38.546c21.255 0 38.547 17.292 38.547 38.546s-17.292 38.546-38.547 38.546zm29.925-59.35c2.969 3.272 2.724 8.332-.548 11.301l-34.001 30.856c-1.529 1.387-3.454 2.076-5.375 2.076-2.052 0-4.1-.785-5.658-2.343l-13.999-13.999c-3.125-3.124-3.124-8.189 0-11.313 3.125-3.124 8.191-3.124 11.313 0l8.609 8.61 28.357-25.735c3.273-2.971 8.332-2.725 11.302.547zm206.249-103.48-50.412-89.074c-2.231-3.943-5.874-6.783-10.256-7.998-4.383-1.216-8.967-.654-12.91 1.576l-17.147 9.705c-3.943 2.231-6.784 5.874-7.998 10.256s-.655 8.967 1.577 12.91l3.939 6.96-7.227 4.173-77.243-20.697c-13.749-3.686-27.304-1.764-39.199 5.559l-110.907 68.292c-11.245 6.923-14.861 24.288-7.588 36.432 2.247 3.752 8.921 12.263 23.093 12.262 7.937-.001 18.229-2.672 31.405-10.346l61.114-35.596c1.092-.636 2.193-1.2 3.305-1.693-.165.503-.317 1.018-.458 1.541-3.478 12.985 4.197 26.529 17.473 30.833.343.111.693.199 1.047.263 17.351 3.129 34.573 9.355 48.411 14.358 4.86 1.757 9.45 3.417 13.377 4.69 4.279 1.388 8.435 1.985 12.459 1.985 11.596 0 22.086-4.958 31.19-10.229l43.216-25.021 3.005 5.309c2.231 3.943 5.874 6.784 10.256 7.998 1.515.42 3.054.627 4.582.627 2.893 0 5.748-.744 8.327-2.204l17.148-9.705c8.155-4.617 11.036-15.009 6.421-23.166zm-100.972 32.314c-13.232 7.661-22.124 9.653-30.696 6.872-3.674-1.191-7.938-2.733-12.874-4.518-14.249-5.151-31.943-11.548-50.405-14.947-4.983-1.832-7.77-6.622-6.512-11.32.502-1.874 2.031-7.536 11.28-6.494 8.847 1.827 17.306 4.24 26.253 6.796 4.301 1.228 8.748 2.498 13.329 3.726.693.186 1.39.274 2.075.274 3.532 0 6.765-2.357 7.723-5.932 1.144-4.268-1.389-8.654-5.657-9.798-4.454-1.193-8.837-2.445-13.075-3.655-9.379-2.679-18.237-5.208-27.824-7.168-.054-.011-.265-.049-.318-.058l-7.606-1.237c-11.975-1.915-22.619-.042-32.534 5.732l-61.114 35.596c-15.973 9.304-28.51 10.717-32.719 3.689-3.057-5.104-1.288-12.408 2.25-14.587l110.907-68.292c8.167-5.028 17.14-6.285 26.669-3.729l80.444 21.555c2.049.548 4.233.261 6.07-.799l9.978-5.761 27.706 48.954zm86.67-23.073-17.147 9.704c-.287.163-.569.134-.756.083-.187-.052-.442-.173-.604-.459l-50.413-89.074c-.162-.287-.135-.569-.083-.756s.173-.442.46-.604l17.147-9.706c.163-.092.324-.123.467-.123.109 0 .208.018.288.041.187.052.443.173.605.46l50.412 89.073c.263.463.086 1.1-.376 1.361zm-8.738-7.027c.489 3.345-1.826 6.454-5.172 6.943-3.345.489-6.454-1.826-6.943-5.172-.489-3.345 1.826-6.454 5.172-6.943 3.345-.49 6.454 1.826 6.943 5.172zm-51.365 165.786c-20.389 0-36.977 16.587-36.977 36.977s16.588 36.977 36.977 36.977 36.977-16.588 36.977-36.977-16.588-36.977-36.977-36.977zm0 57.953c-11.567 0-20.977-9.41-20.977-20.977 0-11.566 9.41-20.977 20.977-20.977s20.977 9.41 20.977 20.977-9.41 20.977-20.977 20.977zm64.26-36.75-6.412-2.468c-1.06-3.366-2.413-6.629-4.046-9.761l2.791-6.283c1.344-3.024.686-6.564-1.654-8.904l-11.749-11.749c-2.34-2.34-5.879-2.998-8.904-1.654l-6.286 2.792c-3.131-1.633-6.393-2.985-9.756-4.045l-2.469-6.415c-1.188-3.089-4.156-5.126-7.466-5.126h-16.615c-3.31 0-6.277 2.038-7.466 5.126l-2.469 6.415c-3.364 1.06-6.625 2.412-9.756 4.045l-6.286-2.792c-3.025-1.344-6.564-.686-8.904 1.654l-11.749 11.75c-2.34 2.34-2.998 5.88-1.654 8.904l2.792 6.285c-1.633 3.132-2.985 6.393-4.045 9.758l-6.414 2.469c-3.089 1.188-5.126 4.156-5.126 7.466v16.616c0 3.31 2.038 6.277 5.126 7.466l6.412 2.468c1.061 3.365 2.413 6.628 4.046 9.76l-2.791 6.283c-1.344 3.025-.686 6.564 1.654 8.904l11.749 11.749c2.34 2.341 5.88 3 8.904 1.654l6.286-2.792c3.131 1.633 6.393 2.985 9.756 4.045l2.469 6.414c1.188 3.089 4.156 5.126 7.466 5.126h16.616c3.31 0 6.277-2.038 7.466-5.126l2.468-6.412c3.366-1.061 6.629-2.413 9.76-4.046l6.283 2.791c3.025 1.344 6.564.686 8.904-1.654l11.749-11.749c2.34-2.34 2.998-5.879 1.654-8.904l-2.792-6.286c1.633-3.131 2.985-6.393 4.045-9.756l6.414-2.469c3.089-1.188 5.126-4.156 5.126-7.466v-16.615c0-3.312-2.038-6.28-5.127-7.468zm-10.873 18.588-5.046 1.942c-2.462.947-4.298 3.048-4.909 5.614-1.092 4.591-2.906 8.964-5.389 12.998-1.383 2.247-1.57 5.031-.499 7.442l2.198 4.949-3.98 3.98-4.945-2.197c-2.412-1.072-5.197-.885-7.443.5-4.03 2.482-8.404 4.296-13.001 5.39-2.566.611-4.667 2.447-5.614 4.909l-1.942 5.044h-5.63l-1.942-5.046c-.947-2.462-3.048-4.298-5.614-4.909-4.591-1.092-8.964-2.906-12.998-5.389-2.247-1.383-5.03-1.57-7.442-.499l-4.949 2.198-3.98-3.98 2.196-4.945c1.071-2.412.884-5.196-.499-7.442-2.483-4.033-4.297-8.407-5.39-13.002-.611-2.566-2.447-4.667-4.909-5.614l-5.044-1.942v-5.629l5.045-1.942c2.462-.947 4.298-3.047 4.909-5.614 1.093-4.593 2.906-8.967 5.39-13 1.383-2.247 1.57-5.031.499-7.442l-2.197-4.947 3.981-3.981 4.948 2.198c2.412 1.072 5.196.884 7.442-.499 4.032-2.483 8.405-4.296 12.999-5.389 2.566-.611 4.666-2.447 5.613-4.909l1.942-5.046h5.63l1.942 5.046c.947 2.462 3.047 4.298 5.613 4.909 4.593 1.093 8.967 2.906 12.999 5.389 2.247 1.383 5.03 1.57 7.442.499l4.949-2.198 3.98 3.981-2.196 4.946c-1.071 2.411-.884 5.196.5 7.442 2.483 4.032 4.297 8.406 5.39 13 .61 2.566 2.447 4.667 4.909 5.615l5.044 1.941v5.629zm14.763-139.948c2.719 3.482 2.101 8.51-1.381 11.229-1.462 1.142-3.197 1.695-4.918 1.695-2.081 0-4.143-.809-5.683-2.364v54.435c0 4.418-3.582 8-8 8s-8-3.582-8-8v-54.443c-2.814 2.845-7.372 3.199-10.602.676-3.482-2.719-4.101-7.747-1.381-11.229l13.678-17.515c1.516-1.941 3.842-3.076 6.305-3.076s4.789 1.135 6.305 3.076zm-76.15 46.82v-19.034c-2.814 2.845-7.371 3.199-10.602.676-3.482-2.719-4.101-7.747-1.381-11.229l13.678-17.515c1.516-1.941 3.842-3.076 6.305-3.076s4.789 1.135 6.305 3.076l13.678 17.515c2.719 3.482 2.101 8.51-1.381 11.229-1.462 1.142-3.197 1.695-4.918 1.695-2.081 0-4.143-.809-5.683-2.364v19.026c0 4.418-3.582 8-8 8s-8.001-3.581-8.001-7.999zm-48.168 23.035v-24.837c-2.814 2.845-7.371 3.199-10.602.676-3.482-2.719-4.101-7.747-1.381-11.229l13.678-17.515c1.516-1.941 3.842-3.076 6.305-3.076s4.789 1.135 6.305 3.076l13.678 17.515c2.719 3.482 2.101 8.51-1.381 11.229-1.462 1.142-3.197 1.695-4.918 1.695-2.081 0-4.143-.809-5.683-2.364v24.83c0 4.418-3.582 8-8 8s-8.001-3.581-8.001-8zm-343.993 52.335c-2.755 0-5.435-1.424-6.921-3.977-8.814-15.141-12.501-32.374-10.663-49.835 4.739-45.012 45.22-77.768 90.224-73.038 9.184.967 18.022 3.438 26.229 7.283-1.063-4.028 1.152-8.247 5.156-9.608 4.184-1.421 8.727.819 10.148 5.002l7.19 21.169c.791 2.329.467 4.892-.879 6.95s-3.563 3.384-6.014 3.593l-22.275 1.907c-.232.02-.463.03-.691.03-4.109 0-7.604-3.148-7.961-7.318-.335-3.919 2.218-7.413 5.888-8.4-5.845-2.428-12.048-4.021-18.465-4.696-36.243-3.815-68.822 22.564-72.637 58.801-1.48 14.058 1.486 27.928 8.578 40.111 2.223 3.818.93 8.716-2.889 10.938-1.267.738-2.652 1.088-4.018 1.088zm124.075-89.351c3.817-2.224 8.716-.93 10.939 2.888 8.814 15.139 12.501 32.372 10.663 49.836-2.295 21.805-12.944 41.41-29.985 55.205-14.753 11.944-32.771 18.294-51.491 18.294-2.903 0-5.82-.152-8.748-.46-9.178-.967-18.019-3.435-26.227-7.279 1.061 4.026-1.153 8.245-5.156 9.604-.853.29-1.721.427-2.574.427-3.333 0-6.442-2.098-7.574-5.429l-7.19-21.169c-.791-2.329-.467-4.892.878-6.95s3.563-3.384 6.014-3.593l22.275-1.907c4.409-.374 8.276 2.886 8.653 7.289.336 3.92-2.218 7.414-5.889 8.4 5.847 2.429 12.052 4.02 18.466 4.695 2.338.246 4.667.367 6.967.367 33.361.003 62.101-25.268 65.669-59.167 1.48-14.06-1.486-27.93-8.578-40.111-2.223-3.819-.93-8.717 2.888-10.94zm-78.863 70.118-18.447-18.446c-3.124-3.124-3.125-8.189 0-11.313 3.124-3.124 8.189-3.124 11.313 0l13.058 13.057 39.158-35.537c3.272-2.97 8.332-2.724 11.301.548s2.724 8.332-.548 11.301l-44.802 40.659c-1.529 1.387-3.454 2.076-5.375 2.076-2.052-.001-4.1-.787-5.658-2.345z"/></svg>