<svg id="Layer_1" enable-background="new 0 0 512 512" viewBox="0 0 512 512" xmlns="http://www.w3.org/2000/svg"><path d="m153.322 383.372h54.87v30.165h-54.87zm-16.504 0h-54.901v30.165h54.901zm-9.077-16.504h54.901v-30.134h-54.901zm-81.212-56.663c0-1.875-.638-3.688-1.803-5.141l-29.516-37.088c-2.844-3.564-8.036-4.152-11.6-1.318-3.565 2.833-4.152 8.025-1.308 11.59l27.723 34.832v137.576h16.504 14.207c2.201 14.156 14.467 25.024 29.227 25.024 14.779 0 27.056-10.869 29.258-25.024h61.804c2.203 14.156 14.479 25.024 29.258 25.024 14.76 0 27.026-10.869 29.227-25.024h15.351v-20.625h-208.332zm432.436 60.268v80.182 8.252c0 4.553-3.688 8.242-8.252 8.242h-14.011-154.842c-4.553 0-8.242-3.688-8.242-8.242v-80.183h-55.797c-4.554 0-8.252-3.698-8.252-8.252v-83.459c0-4.553 3.698-8.252 8.252-8.252h159.417c4.564 0 8.252 3.698 8.252 8.252v75.206h65.224c4.563.002 8.251 3.701 8.251 8.254zm-177.105-8.252h30.629v-66.954h-20.213v25.622c0 4.554-3.699 8.252-8.252 8.252h-29.495c-4.554 0-8.252-3.698-8.252-8.252v-25.622h-20.203v66.954zm100.766 16.504h-5.388-17.009v27.641c0 4.553-3.688 8.252-8.252 8.252h-31.247c-4.553 0-8.242-3.699-8.242-8.252v-27.641h-22.376v71.931h92.514zm108.874-241.34v313.271h-16.051v-80.182c0-13.64-11.095-24.736-24.735-24.736h-44.98v-132.765h-241.578v107.257h-64.667c-4.553 0-8.252 3.698-8.252 8.252v38.386h-12.816v-229.483l206.539-101.065zm-227.556-13.805h42.023v-25.405h-42.023zm164.62 56.971h-287.237v15.917h287.237z"/></svg>