<svg id="Layer_1" height="512" viewBox="0 0 265.2678 215.0455" width="512" xmlns="http://www.w3.org/2000/svg"><g><path d="m105.5911 92.0641 3.8586-5.6826c8.235 4.3958 18.6285 1.9621 23.9903-5.9344 5.7381-8.4507 3.5391-19.9531-4.9117-25.6912-8.4507-5.7382-19.9531-3.5391-25.6912 4.9116-5.3618 7.8965-3.7899 18.4546 3.3336 24.4875l-4.6221 6.8071 3.1414.8195c.3068.0801.6063.1766.9011.2825zm-.2721-30.7112c4.7998-7.0689 14.4554-8.9149 21.5239-4.1153 7.0693 4.8 8.9152 14.4556 4.1154 21.5245-4.7996 7.0685-14.4551 8.9144-21.5244 4.1143-7.0686-4.7995-8.9145-14.455-4.1149-21.5235z"/><path d="m87.6799 111.3874 3.2788 2.2263 2.3789-3.5034-4.0698-1.0616z"/><path d="m124.736 60.3401.8428-1.2412c-6.042-4.1025-14.2959-2.5244-18.3984 3.5176l1.2412.8428c3.6377-5.3589 10.956-6.7569 16.3144-3.1192z"/><path d="m5.1926 195.2703c-3.8115 5.7559-2.2358 13.5117 3.52 17.3237 2.124 1.4067 4.52 2.0796 6.8901 2.0796 4.0527 0 8.0283-1.9678 10.4336-5.5996 14.0139-21.1608 18.4388-40.575 18.5069-56.5765l-29.6127-24.0114c5.7475 14.3482 9.2395 38.1287-9.7379 66.7842z"/><path d="m5.5112 117.7975 4.6055 3.7437 40.6064 33.0078 16.3965 51.7676c1.6875 5.3262 6.6094 8.7295 11.9141 8.729 1.25 0 2.5225-.1895 3.7773-.5869 6.5811-2.0845 10.2266-9.1099 8.1426-15.6909l-17.5264-55.3335c-.7373-2.3262-2.1387-4.3862-4.0322-5.9253l-35.1003-28.5321.0045-.0024c2.4023-9.1896 6.7585-18.377 11.2756-26.7061l-12.0245-19.015c-1.4697-2.3252-1.9473-5.084-1.3418-7.7686.6045-2.6836 2.2178-4.9717 4.543-6.4424 1.6494-1.043 3.5508-1.5957 5.4971-1.5957 3.5576 0 6.8145 1.7939 8.7139 4.7979l6.1168 9.6729c3.452-7.9907 2.6733-17.5069-3.5794-21.5125-7.4095-4.744-20.6168-4.3074-30.0677 7.9579-12.8953 16.9398-18.4788 28.9162-23.1285 50.7925-.6518 4.8584-.2161 8.7136.9399 11.8152.6111 2.5938 2.0401 5.016 4.2676 6.8269z"/><path d="m63.2815 42.4654c10.1129 5.2603 22.3725 2.0834 28.7591-6.9858-1.7522-1.0279-3.5501-2.2093-5.345-3.5286-9.3936-6.9048-15.1893-15.0068-13.1791-18.3188-.2444 3.7726 6.4399 10.2473 16.0256 15.2334 7.2338 3.7628 14.2249 5.6934 18.4873 5.3975 1.9448-.135 3.3222-.733 3.8943-1.8328 1.8269-3.5123-5.2328-10.8016-15.767-16.2811-.3604-.1875-.718-.3591-1.077-.5374-1.7507-5.441-5.5601-10.222-11.0323-13.0684-11.0236-5.7341-24.61-1.4455-30.344 9.5781-5.735 11.0253-1.4455 24.6099 9.5781 30.3439z"/><path d="m37.981 50.9867c-3.7344 2.3613-4.8477 7.3027-2.4863 11.0371l21.5 34c1.084 1.7148 2.7793 2.9531 4.7422 3.4658l38.333 10c.6777.1768 1.3564.2607 2.0254.2607 3.5518 0 6.7969-2.3848 7.7354-5.9824 1.1152-4.2754-1.4463-8.6455-5.7217-9.7607l-35.2783-9.2031-19.8126-31.331c-2.3613-3.7354-7.3056-4.8477-11.0371-2.4864z"/><path d="m164.9659 184.0595-2.6302 1.9856-2.4547-1.9856-2.8055 1.9856-2.7471-1.9856-1.8898 1.9856v-26.6519h-25.6387v55.4644h66.7075v-55.4644h-25.6388v26.6519z"/><path d="m265.2678 159.3932h-25.6387v26.6519l-2.9029-1.9856-2.6301 1.9856-2.4548-1.9856-2.8054 1.9856-2.7471-1.9856-1.8897 1.9856v-26.6519h-25.6388v55.4644h66.7075z"/><path d="m164.9659 123.1466-2.6302 1.9856-2.4547-1.9856-2.8055 1.9856-2.7471-1.9856-1.8898 1.9856v-26.6518h-25.6387v55.4643h66.7075v-55.4643h-25.6388v26.6518z"/><path d="m265.2678 98.4804h-25.6387v26.6518l-2.9029-1.9856-2.6301 1.9856-2.4548-1.9856-2.8054 1.9856-2.7471-1.9856-1.8897 1.9856v-26.6518h-25.6388v55.4643h66.7075z"/></g></svg>