<?xml version="1.0" standalone="no"?>
<!DOCTYPE svg PUBLIC "-//W3C//DTD SVG 20010904//EN"
 "http://www.w3.org/TR/2001/REC-SVG-20010904/DTD/svg10.dtd">
<svg version="1.0" xmlns="http://www.w3.org/2000/svg"
 width="512.000000pt" height="512.000000pt" viewBox="0 0 512.000000 512.000000"
 preserveAspectRatio="xMidYMid meet">
<metadata>
Created by potrace 1.16, written by Peter Selinger 2001-2019
</metadata>
<g transform="translate(0.000000,512.000000) scale(0.100000,-0.100000)"
fill="#000000" stroke="none">
<path d="M4195 4980 c-124 -68 -159 -101 -175 -160 -13 -49 -6 -87 26 -152
l24 -46 -32 -19 -32 -19 -401 108 c-220 59 -429 110 -465 113 -78 8 -186 -12
-256 -48 -27 -14 -299 -179 -604 -366 -392 -241 -567 -354 -596 -385 -46 -50
-64 -100 -64 -181 0 -89 18 -133 76 -192 59 -60 103 -76 206 -75 117 1 198 37
580 260 191 111 348 202 350 202 2 0 3 -30 3 -68 0 -77 20 -126 72 -178 46
-47 77 -60 184 -84 52 -11 201 -56 333 -101 272 -92 317 -102 411 -88 96 13
169 47 439 204 134 77 241 134 244 127 10 -31 64 -91 95 -105 69 -33 120 -24
242 44 60 34 120 71 132 82 33 30 57 99 50 147 -4 29 -82 176 -258 488 -138
246 -263 462 -277 480 -37 51 -79 72 -142 72 -49 0 -68 -7 -165 -60z m417
-548 c136 -240 248 -441 250 -447 4 -13 -164 -107 -174 -97 -16 16 -498 877
-496 884 4 10 148 96 163 97 6 0 121 -196 257 -437z m-1027 88 c225 -60 422
-110 438 -110 15 0 51 14 81 30 l54 31 77 -138 c43 -76 104 -183 135 -239 l58
-101 -97 -56 c-53 -30 -163 -94 -246 -141 -269 -155 -282 -157 -551 -62 -104
37 -256 85 -339 106 -122 32 -154 44 -172 65 -57 65 3 147 94 131 21 -4 120
-30 221 -57 195 -53 229 -56 257 -16 8 12 15 36 15 53 0 59 -22 72 -205 123
-313 88 -459 105 -575 67 -30 -10 -210 -109 -400 -219 -395 -230 -450 -256
-533 -257 -48 0 -62 4 -82 25 -31 30 -35 102 -7 133 21 25 1132 708 1181 727
95 36 124 32 596 -95z"/>
<path d="M2555 3666 c-17 -7 -64 -37 -103 -66 l-73 -53 -99 -8 c-189 -15 -253
-71 -296 -260 -16 -71 -20 -77 -95 -154 -90 -93 -109 -130 -109 -218 0 -55 6
-76 46 -157 l45 -94 -11 -89 c-13 -97 -8 -142 20 -197 21 -41 87 -105 120
-115 16 -5 21 -13 17 -28 -3 -12 -48 -114 -101 -227 -99 -210 -107 -238 -74
-278 25 -30 56 -32 173 -11 64 12 118 19 120 18 1 -2 26 -44 55 -94 65 -110
75 -122 110 -130 63 -14 78 5 195 258 122 264 118 260 211 228 l47 -16 78
-180 c44 -99 87 -186 96 -192 23 -17 74 -16 99 2 12 8 47 57 79 110 32 52 61
95 64 95 4 0 47 -9 97 -20 149 -33 197 -23 209 43 5 27 -9 69 -78 227 l-84
195 44 39 c80 71 101 139 84 275 l-11 85 45 96 c39 83 45 105 45 161 -1 87
-22 129 -112 219 -74 74 -76 76 -93 155 -21 95 -41 139 -87 182 -48 46 -98 64
-209 72 -97 8 -97 8 -167 59 -38 29 -86 59 -105 67 -44 18 -151 19 -192 1z
m186 -202 c107 -76 131 -85 245 -93 76 -6 109 -12 123 -25 11 -10 28 -53 40
-100 31 -124 34 -130 121 -221 58 -61 80 -91 80 -110 0 -14 -16 -57 -35 -95
-50 -99 -58 -145 -45 -258 9 -76 9 -97 -2 -114 -8 -11 -61 -44 -118 -72 -101
-49 -107 -54 -158 -126 -96 -137 -93 -135 -214 -99 -92 27 -147 27 -254 -1
-53 -14 -100 -21 -115 -17 -19 5 -42 31 -79 88 -63 95 -86 114 -203 167 -106
49 -111 58 -96 174 13 107 7 148 -41 248 -22 45 -40 93 -40 106 0 18 24 50 80
109 85 89 92 101 119 210 31 123 41 131 181 138 96 5 133 20 232 93 36 26 71
44 87 44 16 0 53 -19 92 -46z m464 -1393 c42 -97 43 -103 22 -97 -54 15 -125
18 -146 7 -12 -7 -36 -34 -52 -62 -17 -27 -34 -49 -37 -49 -4 0 -15 20 -25 45
-18 43 -17 65 5 65 25 0 81 55 129 126 28 42 52 74 55 72 2 -3 24 -51 49 -107z
m-992 15 c41 -62 85 -98 140 -116 44 -14 44 -16 -10 -124 l-35 -69 -32 54
c-45 75 -68 86 -148 72 -34 -6 -64 -9 -66 -8 -5 4 105 245 111 245 2 0 20 -24
40 -54z"/>
<path d="M2516 3354 c-149 -36 -294 -155 -361 -296 -71 -149 -71 -321 -1 -474
49 -106 154 -211 260 -260 368 -170 786 94 786 496 0 355 -337 618 -684 534z
m245 -174 c70 -21 147 -75 188 -130 l26 -35 -29 23 c-16 12 -41 22 -57 22 -31
0 -45 -11 -204 -155 -147 -133 -127 -126 -190 -66 -61 58 -95 65 -139 30 -21
-16 -26 -29 -26 -63 0 -40 5 -47 94 -134 76 -76 99 -92 124 -92 36 0 44 7 260
203 159 146 168 157 162 211 -4 39 20 2 40 -60 25 -83 25 -145 0 -225 -38
-120 -129 -211 -249 -249 -80 -25 -142 -25 -222 0 -155 49 -269 201 -269 360
0 26 9 76 20 111 63 201 272 311 471 249z"/>
<path d="M4718 3589 c-16 -6 -58 -52 -107 -116 -92 -120 -101 -154 -55 -200
21 -21 32 -25 64 -20 l39 5 3 -280 3 -280 28 -24 c34 -29 76 -31 111 -3 l26
20 0 290 c0 283 0 289 19 279 55 -29 121 11 121 74 0 28 -15 54 -80 137 -44
57 -86 106 -93 110 -26 14 -53 17 -79 8z"/>
<path d="M1272 3437 c-12 -13 -22 -34 -22 -46 0 -18 -4 -22 -17 -16 -10 5 -54
19 -98 33 -70 22 -99 25 -225 26 -163 0 -223 -12 -348 -70 -187 -86 -343 -248
-418 -432 -48 -119 -59 -179 -58 -322 1 -115 5 -148 28 -223 31 -106 79 -202
105 -217 57 -30 131 9 131 70 0 17 -13 57 -29 88 -50 99 -65 166 -65 287 0
128 15 190 77 309 74 143 207 255 372 312 70 25 94 28 200 28 88 0 136 -5 178
-18 l59 -18 -21 -22 c-12 -13 -21 -36 -21 -53 0 -84 28 -95 201 -81 126 11
136 13 162 39 15 15 27 39 27 52 0 40 -81 260 -102 280 -30 25 -89 22 -116 -6z"/>
<path d="M4212 3403 c-11 -10 -52 -60 -91 -111 -59 -79 -71 -100 -71 -132 0
-51 38 -83 92 -78 l36 3 4 -103 c3 -100 4 -105 32 -129 24 -20 36 -24 65 -19
60 9 71 33 71 151 l0 103 44 -5 c38 -5 48 -2 70 20 49 49 35 88 -92 241 -58
71 -65 76 -101 76 -23 0 -47 -7 -59 -17z"/>
<path d="M3732 3233 c-32 -29 -150 -188 -162 -217 -7 -20 -6 -36 4 -61 16 -37
45 -50 96 -43 l30 5 0 -123 c0 -70 5 -134 11 -148 15 -31 59 -50 98 -41 53 11
61 34 61 180 l0 130 43 -3 c53 -5 85 19 93 68 5 33 -1 44 -80 146 -47 62 -92
114 -101 118 -30 11 -73 6 -93 -11z"/>
<path d="M1490 3050 c-36 -36 -35 -65 3 -148 69 -147 85 -299 47 -446 -90
-354 -461 -570 -806 -472 -61 18 -62 18 -43 37 26 26 33 63 17 96 -23 49 -47
53 -201 39 -200 -19 -208 -31 -145 -221 48 -140 65 -165 120 -165 42 0 74 24
84 63 l6 24 66 -23 c467 -162 974 126 1077 611 18 88 19 250 1 335 -20 95 -73
224 -106 260 -34 37 -89 41 -120 10z"/>
<path d="M980 2715 l-204 -186 -76 76 c-84 83 -114 93 -164 54 -21 -16 -26
-29 -26 -62 0 -39 5 -47 113 -154 103 -103 116 -113 150 -113 42 0 28 -12 319
253 114 103 210 196 213 207 10 31 -4 78 -28 95 -12 8 -37 15 -57 15 -32 0
-55 -18 -240 -185z"/>
<path d="M4134 2696 c-12 -8 -28 -34 -37 -58 -15 -38 -23 -45 -67 -61 -45 -16
-52 -16 -79 -2 -63 32 -87 22 -178 -68 -90 -91 -96 -106 -68 -174 14 -34 14
-41 -1 -84 -15 -41 -23 -50 -61 -64 -66 -25 -73 -42 -73 -171 0 -128 10 -151
78 -173 34 -12 41 -19 56 -65 17 -49 17 -55 2 -84 -30 -58 -23 -78 66 -168 74
-77 85 -84 120 -84 22 0 52 7 68 15 26 13 32 13 74 -6 36 -15 49 -29 64 -62
29 -65 42 -71 156 -75 125 -4 162 11 184 74 13 35 23 45 65 62 45 19 52 20 78
7 15 -8 45 -15 66 -15 35 0 46 8 115 78 41 42 78 88 81 102 3 14 -2 45 -12 70
-16 43 -16 47 2 91 17 39 27 49 68 67 33 14 52 29 59 47 14 36 13 208 -2 239
-6 16 -30 34 -59 47 -40 18 -51 30 -67 68 -18 45 -18 47 0 89 27 61 13 94 -76
181 -81 78 -98 83 -171 56 -38 -15 -43 -15 -87 5 -37 16 -49 28 -58 56 -22 66
-39 74 -170 74 -85 0 -121 -4 -136 -14z m173 -193 c19 -39 25 -43 143 -92 81
-33 104 -37 146 -21 21 8 31 7 44 -5 16 -14 16 -19 2 -59 -16 -43 -15 -45 15
-112 17 -38 34 -80 38 -94 10 -36 32 -58 71 -70 50 -17 47 -51 -7 -75 -37 -17
-69 -57 -69 -85 0 -6 -13 -40 -30 -75 -34 -73 -35 -80 -16 -126 13 -30 13 -36
-1 -51 -13 -15 -18 -15 -48 -2 -48 20 -66 18 -137 -15 -35 -16 -78 -35 -97
-42 -25 -9 -39 -24 -53 -56 -25 -56 -58 -60 -76 -9 -15 42 -36 60 -87 76 -22
7 -61 23 -87 36 -55 28 -78 30 -117 9 -26 -13 -30 -13 -45 4 -13 14 -14 24 -6
45 14 38 13 88 -4 111 -7 11 -23 47 -35 80 -27 72 -36 84 -78 102 -49 20 -45
53 9 78 38 18 45 27 63 80 12 33 29 74 38 92 20 37 22 82 5 118 -10 21 -9 29
5 42 13 14 21 15 42 5 39 -18 81 -15 128 9 23 12 64 29 92 38 43 15 53 23 70
59 26 56 57 58 82 5z"/>
<path d="M4170 2375 c-114 -32 -211 -118 -251 -223 -30 -78 -30 -195 0 -274
60 -155 209 -248 379 -236 133 10 245 86 305 207 30 61 32 73 32 166 0 89 -3
106 -27 155 -42 86 -90 135 -171 175 -88 44 -181 54 -267 30z m153 -166 c119
-33 182 -180 124 -288 -87 -165 -331 -135 -376 46 -26 103 39 211 147 243 38
12 61 11 105 -1z"/>
<path d="M1470 1623 c-88 -10 -180 -51 -428 -195 -252 -146 -257 -148 -272
-127 -98 136 -165 143 -350 38 -137 -78 -165 -111 -164 -198 0 -55 7 -68 263
-521 145 -256 273 -476 285 -488 37 -42 74 -55 140 -50 52 4 76 14 161 62 120
69 133 80 156 131 27 57 24 104 -10 169 l-30 56 29 15 c16 8 35 15 43 15 8 0
174 -43 368 -95 195 -53 388 -103 429 -111 89 -18 181 -13 262 15 49 17 1149
683 1235 749 52 39 86 120 87 205 0 167 -104 269 -272 268 -140 -1 -184 -21
-637 -285 l-300 -175 -5 73 c-5 59 -12 84 -36 122 -45 74 -101 106 -240 138
-65 16 -220 63 -344 106 -217 74 -292 91 -370 83z m278 -234 c171 -61 327
-108 426 -129 106 -22 149 -98 90 -157 -23 -23 -31 -25 -77 -19 -29 3 -133 28
-231 56 -99 27 -186 50 -192 50 -45 0 -84 -44 -84 -94 0 -51 25 -64 235 -122
318 -87 432 -98 562 -53 29 10 209 109 400 220 361 211 442 249 521 249 58 0
87 -19 102 -65 10 -30 9 -41 -7 -72 -16 -32 -86 -78 -593 -390 -316 -194 -591
-359 -610 -365 -81 -28 -145 -17 -578 100 -227 62 -425 112 -439 112 -15 0
-51 -14 -81 -31 -30 -17 -55 -29 -57 -27 -23 26 -265 472 -259 478 16 15 447
262 500 287 65 29 128 42 174 36 19 -3 108 -32 198 -64z m-891 -596 l252 -447
-86 -49 c-71 -40 -88 -46 -98 -35 -16 17 -495 865 -495 876 0 8 159 102 170
101 3 0 118 -201 257 -446z"/>
</g>
</svg>
