<svg id="Layer_1" enable-background="new 0 0 66 66" height="512" viewBox="0 0 66 66" width="512" xmlns="http://www.w3.org/2000/svg"><g><path d="m16.1 41.6v10.7c0 2.3 1.8 4.1 4.1 4.1h31.5c2.3 0 4.1-1.8 4.1-4.1v-46.2c0-2.3-1.8-4.1-4.1-4.1h-31.5c-2.3 0-4.1 1.8-4.1 4.1v19.5" style="fill:none;stroke:#000;stroke-width:2;stroke-linecap:round;stroke-linejoin:round;stroke-miterlimit:10"/><path d="m63.2 14.3-4.3 46c-.2 2.3-2.2 3.9-4.5 3.7l-31.4-2.9c-2.3-.2-3.9-2.2-3.7-4.5v-.2c.2 0 .5.1.8.1h31.5c2.3 0 4.1-1.9 4.1-4.1v-42.9l3.7.3c2.4.2 4 2.2 3.8 4.5z" style="fill:none;stroke:#000;stroke-width:2;stroke-linecap:round;stroke-linejoin:round;stroke-miterlimit:10"/><g><g><g><path d="m45.8 9.2c0 7.7-3.9 14.3-9.8 18.2-5.9-3.8-9.9-10.5-9.9-18.1v-.1c1.4-.1 2.7-.4 4-.7 2.1-.6 4.1-1.5 5.8-2.6 1.8 1.2 3.7 2.1 5.8 2.6 1.4.3 2.7.6 4.1.7z" style="fill:none;stroke:#000;stroke-width:2;stroke-linecap:round;stroke-linejoin:round;stroke-miterlimit:10"/></g></g><path d="m32.1 16.4 2 2 5.7-5.7" style="fill:none;stroke:#000;stroke-width:2;stroke-linecap:round;stroke-linejoin:round;stroke-miterlimit:10"/></g><g style="fill:none;stroke:#000;stroke-width:2;stroke-linecap:round;stroke-linejoin:round;stroke-miterlimit:10"><g><path d="m22.8 52h14.7v-2c0-1.3-1.1-2.4-2.4-2.4h-9.8c-1.3 0-2.4 1.1-2.4 2.4v2z"/><path d="m20.9 52h18.4v4.4h-18.4z" transform="matrix(-1 0 0 -1 60.251 108.444)"/><g><path d="m15.7 29.5h10.8v8h-10.8z" transform="matrix(-.707 -.707 .707 -.707 12.296 72.139)"/><path d="m22.1 42.7c-.7-.7-.7-1.8 0-2.5l5.6-5.6c.7-.7 1.8-.7 2.5 0 .7.7.7 1.8 0 2.5l-5.6 5.6c-.6.7-1.8.7-2.5 0z"/><path d="m11.9 32.5c-.7-.7-.7-1.8 0-2.5l5.6-5.6c.7-.7 1.8-.7 2.5 0 .7.7.7 1.8 0 2.5l-5.6 5.6c-.6.7-1.8.7-2.5 0z"/><path d="m5.7 45.4c-1 1-1.1 2.6-.1 3.6 1 1 2.7 1 3.6-.1l10.4-11.2-2.7-2.7z"/></g></g><g><path d="m8.7 28.1-3 5.3-2.9-5.3"/><path d="m2.8 28.1h6v-24.3c0-.6-.4-1.2-.9-1.4-1.4-.5-2.8-.5-4.1 0-.7.2-1 .8-1 1.4z"/><path d="m8.7 3.8v2.3h-6v-2.3c0-.6.4-1.2.9-1.4 1.4-.5 2.8-.5 4.1 0 .7.2 1 .8 1 1.4z"/></g><g><path d="m36.7 33h13.6"/><path d="m35.1 38.8h15.2"/><path d="m40.9 44.5h9.4"/><path d="m45.1 50.3h5.2"/></g></g></g></svg>