<?xml version="1.0" encoding="UTF-8"?>
<svg xmlns="http://www.w3.org/2000/svg" viewBox="0 0 512 512" width="512" height="512"><g id="solid"><path d="M13.03,458.68A4.008,4.008,0,0,0,16,460h4v32H252V460h7.4c.98.86,1.97,1.69,3,2.49a20,20,0,0,0,31.74,23.65l2-2A19.959,19.959,0,0,0,312,492h48a20.035,20.035,0,0,0,19.6-16H388v12a4,4,0,0,0,4,4h64a4,4,0,0,0,4-4V460.52a63.624,63.624,0,0,0,21.91-41.45l10.07-90.63a3.962,3.962,0,0,0-3.52-4.39,165.928,165.928,0,0,0-15.34-144.34l-8.65-13.83a4.008,4.008,0,0,0-6.22-.71l-30.08,30.08a148.119,148.119,0,0,0-27.71,38.44q-.555,1.11-1.08,2.22a133.729,133.729,0,0,1,29.87,49.59,84.207,84.207,0,0,1,1-13.23l-11.89-38.42a4,4,0,0,1,3.02-5.1,4.113,4.113,0,0,1,4.68,2.9l7.54,24.38q2.925-12.57,6.84-24.91l2.04-6.41-7.29-14.22a4,4,0,0,1,2.09-5.55,4.111,4.111,0,0,1,5.1,2.05l3.54,6.9,7.35-23.1a4,4,0,0,1,5.79-2.27,4.074,4.074,0,0,1,1.8,4.8l-6.92,21.76,9.66-6.13a4.009,4.009,0,0,1,5.72,1.59,4.1,4.1,0,0,1-1.58,5.26l-17.58,11.14-2.1,6.6q-4.125,12.96-7.12,26.21l24.56-24.58a4,4,0,1,1,5.66,5.66l-33.08,33.1q-2.73,15.195-3.96,30.61.36,2.04.66,4.11l23.39-23.4a4.085,4.085,0,0,1,5.09-.61,4.009,4.009,0,0,1,.65,6.19l-28.03,28.03c.01.24.03.49.05.74a1.927,1.927,0,0,1,.01.24,4,4,0,0,1-7.99.27,125.326,125.326,0,0,0-32.09-76.22.462.462,0,0,0-.07-.07c-.6-.67-1.22-1.34-1.84-2-.8-.85-1.61-1.69-2.43-2.51A125.437,125.437,0,0,0,357.38,215l-.78-.39a4,4,0,0,0-5.69,2.69l-7.75,34.03a127.175,127.175,0,0,0,1.69,62.96c.94,3.28,2.06,6.52,3.32,9.71H314.64l-16.42-36.81.57-.27a11.985,11.985,0,0,0,5.87-15.56L300,260.5V168a36,36,0,0,0-36-36H186.52v-8.42a24.039,24.039,0,0,0,20-23.66V71.42a25.021,25.021,0,0,0,20-24.48V27.92a4,4,0,0,0-4-4H191.46l-8.38-4.15a37.347,37.347,0,0,0-7.86-2.82,36.931,36.931,0,0,0-8.29-.95,36.455,36.455,0,0,0-36.41,36.42V79.97a16.075,16.075,0,0,0,8,13.88V132H53.69a35.827,35.827,0,0,0-35.3,41.93l13.82,79.82L12.02,455.6A4.016,4.016,0,0,0,13.03,458.68ZM204,404H96.78l2.97-32.37a61.693,61.693,0,0,0,6.67.37,64.253,64.253,0,0,0,27.56-6.25l14.31-6.85-1.28,24.89a4,4,0,0,0,3.78,4.21H151a4,4,0,0,0,3.99-3.79l1.51-29.24L204,332.26Zm8,48V328.43l30.3-14.49L245.63,324H232a4,4,0,0,0-3.98,4.44l10.07,90.63A63.883,63.883,0,0,0,251.77,452Zm80,20a19.777,19.777,0,0,0,.52,4.45l-4.04,4.03a11.993,11.993,0,1,1-16.96-16.96l14.14-14.14,10.48,10.48A19.908,19.908,0,0,0,292,472Zm40,12H312a12,12,0,0,1,0-24h20Zm24.92-220.09a4,4,0,0,1,5.5-1.32l11.96,7.31-12.79-28.05a4,4,0,0,1,7.28-3.32l13.36,29.31,1.46-6.03a4,4,0,0,1,7.78,1.88l-3.9,16.05c3.05,7.07,5.86,14.27,8.42,21.55l3.44-14.7a4,4,0,0,1,7.79,1.82l-6.68,28.58-.02-.01a4,4,0,0,1-2.72,2.91,4.23,4.23,0,0,1-1.16.17,4,4,0,0,1-2.21-.68l-.01.02L363,298.32a4,4,0,1,1,4.46-6.64l21.82,14.64c-2.73-7.95-5.77-15.8-9.09-23.48l-21.95-13.43A4,4,0,0,1,356.92,263.91ZM400.08,332h83.45l-9.58,86.19A55.581,55.581,0,0,1,460,449.37V410a14.015,14.015,0,0,0-14-14h-2v-8h4a4,4,0,0,0,4-4V368a4,4,0,0,0-4-4h-.88l4.76-19.03A4,4,0,0,0,448,340H400a4,4,0,0,0-3.88,4.97L400.88,364H400a4,4,0,0,0-4,4v16a4,4,0,0,0,4,4h4v8h-2a14.015,14.015,0,0,0-14,14v58h-8.4A20.035,20.035,0,0,0,360,452H328.26a19.991,19.991,0,0,0-28.46-28.08l-32.36,32.36a55.919,55.919,0,0,1-21.39-38.09L236.47,332ZM404,380v-8h40v8ZM295.34,279.7l-60.88,29.12-22.39-48.34,61.66-29.09.47-.23a4.013,4.013,0,0,1,5.39,2.04l17.71,41.31A3.991,3.991,0,0,1,295.34,279.7ZM212,140h52a28.031,28.031,0,0,1,28,28v73.83l-5.06-11.79A12,12,0,0,0,276,222.78V176a4,4,0,0,0-8,0v43.47l-15.25-34.15c-5-11.2-15.08-18.44-25.67-18.44A21.7,21.7,0,0,0,212,172.89Zm0,82.41,8.38,25.3L212,251.67ZM204,140V255.44l-43.44,20.5L166.11,168l13.91,11.12a3.975,3.975,0,0,0,2.5.88,4.041,4.041,0,0,0,2.83-1.17l16-16a4,4,0,0,0-5.66-5.66l-13.47,13.47L168.2,159.43,184.39,140ZM146.55,71.94a8,8,0,0,1,6.78,3.73,3.989,3.989,0,0,0,6.23.64,25.094,25.094,0,0,0,7.12-15.36l26.4,9.49a24.883,24.883,0,0,0,5.44,1.28v28.2a16.021,16.021,0,0,1-16,16,35.869,35.869,0,0,1-20.05-6.09,4,4,0,1,0-4.46,6.64,43.7,43.7,0,0,0,20.51,7.26v10.82l-16,19.2-16-19.2V91.31a4,4,0,0,0-2.66-3.77,8.032,8.032,0,0,1,2.69-15.6ZM140.65,140l16.18,19.42-14.02,11.22-13.46-13.47a4,4,0,0,0-5.66,5.66l16,16a4,4,0,0,0,5.33.29l13.05-10.44-5.72,111.14-37.39,17.64-5.69-29.72L120.98,140ZM26.27,172.57A27.829,27.829,0,0,1,53.69,140h59.26l-9.11,99.35-10.73-56.1a4,4,0,0,0-7.86,1.5l22.82,119.28a4,4,0,0,0,5.64,2.87l91.12-43,22.42,48.37-96.73,46.26a55.85,55.85,0,0,1-79.13-40.85ZM37.3,283.19l6.21,35.85A63.778,63.778,0,0,0,91.84,370.3L84.35,452H20.42Z"/></g></svg>
