<svg id="Layer_1" height="512" viewBox="0 0 50 50" width="512" xmlns="http://www.w3.org/2000/svg"><g><path d="m33.9 1c-5.1 0-9.3 4.2-9.3 9.3 0 1.5.4 3 1.1 4.3l-1 4.4c0 .2 0 .3.1.5.1.1.2.2.3.2h.1l4.4-1c1.3.7 2.8 1.1 4.3 1.1 5.1 0 9.3-4.2 9.3-9.3s-4.1-9.5-9.3-9.5m5.5 9.8c-.7.2-1.3.6-1.5 1.1s-.1 1.3.3 1.9c-.2.3-.5.5-.7.8-.6-.4-1.3-.5-1.8-.3-.6.3-1 .8-1.1 1.5-.3 0-.7 0-1 0-.2-.7-.5-1.3-1.1-1.5s-1.2-.1-1.8.3c-.3-.2-.5-.5-.7-.7.4-.6.5-1.3.3-1.9s-.8-1-1.5-1.1c0-.3 0-.7 0-1.1.7-.2 1.3-.6 1.5-1.1.2-.6.1-1.3-.3-1.9.2-.3.5-.5.7-.8.6.4 1.3.5 1.9.3.6-.3 1-.8 1.1-1.5h1c.1.7.5 1.3 1.1 1.5s1.2.1 1.9-.3c.3.2.5.5.7.7-.4.6-.5 1.3-.3 1.8.2.6.8 1 1.5 1.1-.2.5-.2.8-.2 1.2"/><path d="m36.8 10.3c0 1.6-1.3 2.9-2.9 2.9s-2.9-1.3-2.9-2.9 1.3-2.9 2.9-2.9 2.9 1.3 2.9 2.9"/><path d="m27.3 38c0-.3 0-.6-.1-.9v-.2c1.2-.8 2.1-2.1 2.7-3.6h.4c.9 0 1.6-.5 1.9-1.5.2-.7.4-1.4.1-2-.2-.4-.5-.6-1-.8-.2 0-.3 0-.5 0 .8-3.1-1.2-5.3-3.2-6.3-1.9-1-3.9-1-5-.1-.6-.4-1.1-.6-1.6-.5-.9.2-1.4 1.2-2 2.2-.6 1.2-1.3 2.5-2.6 2.8-.2.1-.3.2-.4.4 0 .2 0 .4.2.5.8.6 1.7.9 2.6.9-.2 0-.5 0-.7.1-.5.1-.8.4-1 .8-.3.6-.2 1.3.1 2 .3 1 1 1.5 1.9 1.5.1 0 .3 0 .4-.1.6 1.6 1.4 2.9 2.7 3.7v.2c0 .3-.1.6-.1.9-3.4.3-7.1 1.3-7.1 5.9 0 2.8 2.5 5.1 5.6 5.1h8.1c3 0 5.5-2.3 5.6-5.1 0-4.7-3.7-5.7-7-5.9m-2.7 8.3-1.1-.7.7-3.8.4-.3.2.2.8 4zm3-7.3h.2.3.2l-1.6 2.6-1-.8-.2-.2 1.3-1.4.4-.4c.1.2.2.2.4.2m-7.8-10.1c1.1-.3 2.1-1 2.9-1.9.7.4 1.6.5 2.6.6 1.5.2 3.2.4 4.3 1.6 0 1.1-.2 2.2-.5 3.3-.7 2.3-2.1 4.1-4.4 4.1-.7 0-1.2-.2-1.7-.4-2.5-1.2-3.2-5.1-3.2-7.3m1.6 10.1h.2.3.4l1.3 1.4.4.4-1.2.9-1.6-2.6s.1 0 .2-.1"/><path d="m45 33.2c-.5-.1-.9-.2-1.4-.2 0-.2 0-.4-.1-.7.9-.6 1.6-1.6 2-2.8h.2c.7 0 1.3-.4 1.6-1.3.2-.5.3-1.1.1-1.6-.2-.3-.5-.5-.8-.6-.1 0-.1 0-.2 0 .6-2.4-1-4.2-2.6-5-1.5-.8-3-.8-3.9-.1-.5-.3-.9-.4-1.3-.3-.8.2-1.2 1-1.6 1.8-.5.9-.9 1.9-1.9 2.2-.2 0-.3.2-.4.4 0 .2 0 .4.2.5.5.3.9.6 1.4.7-.3.1-.6.3-.8.6-.3.5-.1 1.1 0 1.6.3.8.9 1.3 1.6 1.3h.2c.4 1.2 1.1 2.2 2 2.8v.1.6c-.4 0-.9.1-1.3.2 0 0 0 0-.1 0-2.1.4-4 1.5-4 4.6 0 2.3 2 4.1 4.4 4.1h6.2c2.4 0 4.4-1.8 4.4-4.1.1-3.3-1.9-4.4-3.9-4.8m-3.6 6.3-.6-.5.5-2.9.2-.2.6 3zm2.6-5.4-1 1.8-.7-.5-.1-.1 1.2-1.3h.1c.2 0 .4.1.5.1m-6.1-8c.8-.2 1.6-.7 2.2-1.4.5.3 1.2.3 1.9.4 1.2.2 2.4.3 3.2 1.2-.1 2-.9 5.6-3.6 5.6-3 0-3.7-3.8-3.7-5.8m1.6 7.9s.1 0 0 0l1.2 1.3.1.1-.8.5-1.1-1.8c.2 0 .4-.1.6-.1"/><path d="m12 33.2c-.5-.1-.9-.2-1.4-.2 0-.2 0-.4-.1-.6v-.1c.9-.6 1.6-1.6 2-2.8h.2c.7 0 1.3-.4 1.6-1.3.2-.5.3-1.1 0-1.6-.2-.3-.4-.5-.8-.6-.1 0-.1 0-.2 0 .6-2.4-1-4.2-2.6-5-1.5-.8-3-.8-3.9-.1-.5-.3-.9-.4-1.3-.3-.8.2-1.2.9-1.6 1.8-.5.9-.9 1.9-1.9 2.1-.2.1-.3.2-.4.4 0 .2 0 .4.2.5.5.3.9.6 1.4.7-.3.1-.6.3-.8.6-.3.5-.1 1.1 0 1.6.3.8.9 1.3 1.6 1.3h.2c.4 1.2 1.1 2.2 2 2.8v.1.6c-.4 0-.9.1-1.3.2 0 0 0 0-.1 0-2.1.4-4 1.5-4 4.6 0 2.3 2 4.1 4.4 4.1h6.2c2.4 0 4.4-1.8 4.4-4.1.2-3.2-1.8-4.3-3.8-4.7m-7.1-7.1c.8-.2 1.6-.7 2.1-1.4.6.3 1.3.4 2 .5 1.2.2 2.4.3 3.2 1.2-.1 2-.9 5.6-3.6 5.6-3-.1-3.7-3.9-3.7-5.9m1.1 8c.2 0 .4 0 .5-.1h.1l1.1 1.2.1.1-.8.6zm2.4 5.4-.6-.5.5-2.9.2-.1.6 3zm1.6-3.6-.7-.5-.1-.1 1.2-1.3h.1c.2 0 .4 0 .5.1z"/></g></svg>